<mxfile host="app.diagrams.net" modified="2021-10-03T03:37:09.239Z" agent="5.0 (X11; Linux x86_64) AppleWebKit/537.36 (KHTML, like Gecko) Chrome/94.0.4606.71 Safari/537.36" etag="_Um9vrG0n6DysV9cRfLZ" version="15.4.1" type="github" pages="3">
  <diagram id="6OmSFfkwX89OONU2K9B_" name="Usecase tổng quát">
    <mxGraphModel dx="1422" dy="920" grid="1" gridSize="10" guides="1" tooltips="1" connect="1" arrows="1" fold="1" page="1" pageScale="1" pageWidth="827" pageHeight="1169" math="0" shadow="0">
      <root>
        <mxCell id="0" />
        <mxCell id="1" parent="0" />
        <mxCell id="CkkVm7YenpbbgUDBb8Ox-1" value="Employee&lt;br&gt;" style="shape=umlActor;verticalLabelPosition=bottom;verticalAlign=top;html=1;outlineConnect=0;" vertex="1" parent="1">
          <mxGeometry x="80" y="60" width="30" height="60" as="geometry" />
        </mxCell>
        <mxCell id="CkkVm7YenpbbgUDBb8Ox-15" value="" style="edgeStyle=orthogonalEdgeStyle;rounded=0;orthogonalLoop=1;jettySize=auto;html=1;" edge="1" parent="1" source="CkkVm7YenpbbgUDBb8Ox-2" target="CkkVm7YenpbbgUDBb8Ox-1">
          <mxGeometry relative="1" as="geometry" />
        </mxCell>
        <mxCell id="CkkVm7YenpbbgUDBb8Ox-2" value="Manager" style="shape=umlActor;verticalLabelPosition=bottom;verticalAlign=top;html=1;outlineConnect=0;" vertex="1" parent="1">
          <mxGeometry x="80" y="390" width="30" height="60" as="geometry" />
        </mxCell>
        <mxCell id="CkkVm7YenpbbgUDBb8Ox-3" value="Root" style="shape=umlActor;verticalLabelPosition=bottom;verticalAlign=top;html=1;outlineConnect=0;" vertex="1" parent="1">
          <mxGeometry x="80" y="650" width="30" height="60" as="geometry" />
        </mxCell>
        <mxCell id="CkkVm7YenpbbgUDBb8Ox-17" value="Đăng nhập với tài khoản mặc định" style="ellipse;whiteSpace=wrap;html=1;" vertex="1" parent="1">
          <mxGeometry x="530" y="890" width="120" height="50" as="geometry" />
        </mxCell>
        <mxCell id="CkkVm7YenpbbgUDBb8Ox-18" value="Quản lý phòng ban" style="ellipse;whiteSpace=wrap;html=1;" vertex="1" parent="1">
          <mxGeometry x="530" y="810" width="120" height="50" as="geometry" />
        </mxCell>
        <mxCell id="CkkVm7YenpbbgUDBb8Ox-19" value="Quản lý nhân viên" style="ellipse;whiteSpace=wrap;html=1;" vertex="1" parent="1">
          <mxGeometry x="540" y="720" width="120" height="60" as="geometry" />
        </mxCell>
        <mxCell id="CkkVm7YenpbbgUDBb8Ox-20" value="Reset password 1/ nhiều account" style="ellipse;whiteSpace=wrap;html=1;" vertex="1" parent="1">
          <mxGeometry x="540" y="640" width="120" height="50" as="geometry" />
        </mxCell>
        <mxCell id="CkkVm7YenpbbgUDBb8Ox-21" value="Phê duyệt yêu cầu nghỉ phép" style="ellipse;whiteSpace=wrap;html=1;" vertex="1" parent="1">
          <mxGeometry x="560" y="545" width="120" height="50" as="geometry" />
        </mxCell>
        <mxCell id="CkkVm7YenpbbgUDBb8Ox-22" value="Login/logout" style="ellipse;whiteSpace=wrap;html=1;" vertex="1" parent="1">
          <mxGeometry x="550" y="270" width="120" height="50" as="geometry" />
        </mxCell>
        <mxCell id="CkkVm7YenpbbgUDBb8Ox-23" value="Đổi mật khẩu lần đầu đăng nhập" style="ellipse;whiteSpace=wrap;html=1;" vertex="1" parent="1">
          <mxGeometry x="550" y="70" width="130" height="50" as="geometry" />
        </mxCell>
        <mxCell id="CkkVm7YenpbbgUDBb8Ox-24" value="Cập nhật thông tin cá nhân" style="ellipse;whiteSpace=wrap;html=1;" vertex="1" parent="1">
          <mxGeometry x="550" y="140" width="140" height="50" as="geometry" />
        </mxCell>
        <mxCell id="CkkVm7YenpbbgUDBb8Ox-26" value="Checkin/checkout" style="ellipse;whiteSpace=wrap;html=1;" vertex="1" parent="1">
          <mxGeometry x="555" y="200" width="120" height="50" as="geometry" />
        </mxCell>
        <mxCell id="CkkVm7YenpbbgUDBb8Ox-27" value="Tạo yêu cầu xin nghỉ phép" style="ellipse;whiteSpace=wrap;html=1;" vertex="1" parent="1">
          <mxGeometry x="560" width="120" height="60" as="geometry" />
        </mxCell>
        <mxCell id="CkkVm7YenpbbgUDBb8Ox-33" value="" style="endArrow=none;html=1;rounded=0;entryX=0;entryY=0.5;entryDx=0;entryDy=0;" edge="1" parent="1" source="CkkVm7YenpbbgUDBb8Ox-1" target="CkkVm7YenpbbgUDBb8Ox-22">
          <mxGeometry width="50" height="50" relative="1" as="geometry">
            <mxPoint x="390" y="450" as="sourcePoint" />
            <mxPoint x="440" y="400" as="targetPoint" />
          </mxGeometry>
        </mxCell>
        <mxCell id="CkkVm7YenpbbgUDBb8Ox-40" value="" style="endArrow=none;html=1;rounded=0;entryX=0;entryY=0.5;entryDx=0;entryDy=0;" edge="1" parent="1" source="CkkVm7YenpbbgUDBb8Ox-1" target="CkkVm7YenpbbgUDBb8Ox-23">
          <mxGeometry width="50" height="50" relative="1" as="geometry">
            <mxPoint x="390" y="450" as="sourcePoint" />
            <mxPoint x="440" y="400" as="targetPoint" />
          </mxGeometry>
        </mxCell>
        <mxCell id="CkkVm7YenpbbgUDBb8Ox-41" value="" style="endArrow=none;html=1;rounded=0;entryX=0;entryY=0.5;entryDx=0;entryDy=0;" edge="1" parent="1" target="CkkVm7YenpbbgUDBb8Ox-24">
          <mxGeometry width="50" height="50" relative="1" as="geometry">
            <mxPoint x="110" y="100" as="sourcePoint" />
            <mxPoint x="440" y="400" as="targetPoint" />
          </mxGeometry>
        </mxCell>
        <mxCell id="CkkVm7YenpbbgUDBb8Ox-42" value="" style="endArrow=none;html=1;rounded=0;entryX=0;entryY=0.5;entryDx=0;entryDy=0;" edge="1" parent="1" target="CkkVm7YenpbbgUDBb8Ox-26">
          <mxGeometry width="50" height="50" relative="1" as="geometry">
            <mxPoint x="110" y="100" as="sourcePoint" />
            <mxPoint x="440" y="400" as="targetPoint" />
          </mxGeometry>
        </mxCell>
        <mxCell id="CkkVm7YenpbbgUDBb8Ox-43" value="" style="endArrow=none;html=1;rounded=0;entryX=0;entryY=0.5;entryDx=0;entryDy=0;" edge="1" parent="1" source="CkkVm7YenpbbgUDBb8Ox-1" target="CkkVm7YenpbbgUDBb8Ox-27">
          <mxGeometry width="50" height="50" relative="1" as="geometry">
            <mxPoint x="390" y="450" as="sourcePoint" />
            <mxPoint x="440" y="400" as="targetPoint" />
          </mxGeometry>
        </mxCell>
        <mxCell id="CkkVm7YenpbbgUDBb8Ox-44" value="Xem thông tin cấp dưới" style="ellipse;whiteSpace=wrap;html=1;" vertex="1" parent="1">
          <mxGeometry x="540" y="330" width="120" height="50" as="geometry" />
        </mxCell>
        <mxCell id="CkkVm7YenpbbgUDBb8Ox-45" value="Xuất nhân viên của phòng ra file excel" style="ellipse;whiteSpace=wrap;html=1;" vertex="1" parent="1">
          <mxGeometry x="550" y="400" width="120" height="50" as="geometry" />
        </mxCell>
        <mxCell id="CkkVm7YenpbbgUDBb8Ox-46" value="Xuất báo cáo ngày / giờ làm việc của nhân viên" style="ellipse;whiteSpace=wrap;html=1;" vertex="1" parent="1">
          <mxGeometry x="550" y="460" width="150" height="60" as="geometry" />
        </mxCell>
        <mxCell id="CkkVm7YenpbbgUDBb8Ox-47" value="" style="endArrow=none;html=1;rounded=0;entryX=0;entryY=0.5;entryDx=0;entryDy=0;" edge="1" parent="1" source="CkkVm7YenpbbgUDBb8Ox-2" target="CkkVm7YenpbbgUDBb8Ox-44">
          <mxGeometry width="50" height="50" relative="1" as="geometry">
            <mxPoint x="390" y="420" as="sourcePoint" />
            <mxPoint x="440" y="370" as="targetPoint" />
          </mxGeometry>
        </mxCell>
        <mxCell id="CkkVm7YenpbbgUDBb8Ox-48" value="" style="endArrow=none;html=1;rounded=0;entryX=0;entryY=0.5;entryDx=0;entryDy=0;" edge="1" parent="1" source="CkkVm7YenpbbgUDBb8Ox-2" target="CkkVm7YenpbbgUDBb8Ox-45">
          <mxGeometry width="50" height="50" relative="1" as="geometry">
            <mxPoint x="390" y="420" as="sourcePoint" />
            <mxPoint x="440" y="370" as="targetPoint" />
          </mxGeometry>
        </mxCell>
        <mxCell id="CkkVm7YenpbbgUDBb8Ox-49" value="" style="endArrow=none;html=1;rounded=0;entryX=0;entryY=0.5;entryDx=0;entryDy=0;" edge="1" parent="1" source="CkkVm7YenpbbgUDBb8Ox-2" target="CkkVm7YenpbbgUDBb8Ox-46">
          <mxGeometry width="50" height="50" relative="1" as="geometry">
            <mxPoint x="390" y="420" as="sourcePoint" />
            <mxPoint x="440" y="370" as="targetPoint" />
          </mxGeometry>
        </mxCell>
        <mxCell id="CkkVm7YenpbbgUDBb8Ox-52" value="" style="endArrow=none;html=1;rounded=0;entryX=0;entryY=0.5;entryDx=0;entryDy=0;" edge="1" parent="1" source="CkkVm7YenpbbgUDBb8Ox-2" target="CkkVm7YenpbbgUDBb8Ox-21">
          <mxGeometry width="50" height="50" relative="1" as="geometry">
            <mxPoint x="390" y="420" as="sourcePoint" />
            <mxPoint x="440" y="370" as="targetPoint" />
          </mxGeometry>
        </mxCell>
        <mxCell id="CkkVm7YenpbbgUDBb8Ox-53" value="" style="endArrow=none;html=1;rounded=0;entryX=0;entryY=0.5;entryDx=0;entryDy=0;" edge="1" parent="1" source="CkkVm7YenpbbgUDBb8Ox-3" target="CkkVm7YenpbbgUDBb8Ox-21">
          <mxGeometry width="50" height="50" relative="1" as="geometry">
            <mxPoint x="390" y="640" as="sourcePoint" />
            <mxPoint x="440" y="590" as="targetPoint" />
          </mxGeometry>
        </mxCell>
        <mxCell id="CkkVm7YenpbbgUDBb8Ox-54" value="" style="endArrow=none;html=1;rounded=0;" edge="1" parent="1" target="CkkVm7YenpbbgUDBb8Ox-20">
          <mxGeometry width="50" height="50" relative="1" as="geometry">
            <mxPoint x="110" y="680" as="sourcePoint" />
            <mxPoint x="440" y="590" as="targetPoint" />
          </mxGeometry>
        </mxCell>
        <mxCell id="CkkVm7YenpbbgUDBb8Ox-55" value="" style="endArrow=none;html=1;rounded=0;entryX=0;entryY=0.5;entryDx=0;entryDy=0;" edge="1" parent="1" source="CkkVm7YenpbbgUDBb8Ox-3" target="CkkVm7YenpbbgUDBb8Ox-19">
          <mxGeometry width="50" height="50" relative="1" as="geometry">
            <mxPoint x="130" y="670" as="sourcePoint" />
            <mxPoint x="440" y="590" as="targetPoint" />
          </mxGeometry>
        </mxCell>
        <mxCell id="CkkVm7YenpbbgUDBb8Ox-56" value="" style="endArrow=none;html=1;rounded=0;entryX=0;entryY=0.5;entryDx=0;entryDy=0;" edge="1" parent="1" source="CkkVm7YenpbbgUDBb8Ox-3" target="CkkVm7YenpbbgUDBb8Ox-18">
          <mxGeometry width="50" height="50" relative="1" as="geometry">
            <mxPoint x="130" y="670" as="sourcePoint" />
            <mxPoint x="440" y="590" as="targetPoint" />
          </mxGeometry>
        </mxCell>
        <mxCell id="CkkVm7YenpbbgUDBb8Ox-57" value="" style="endArrow=none;html=1;rounded=0;entryX=0;entryY=0.5;entryDx=0;entryDy=0;" edge="1" parent="1" target="CkkVm7YenpbbgUDBb8Ox-17">
          <mxGeometry width="50" height="50" relative="1" as="geometry">
            <mxPoint x="110" y="680" as="sourcePoint" />
            <mxPoint x="440" y="590" as="targetPoint" />
          </mxGeometry>
        </mxCell>
        <mxCell id="CkkVm7YenpbbgUDBb8Ox-59" value="" style="endArrow=none;html=1;rounded=0;exitX=1;exitY=0.3333333333333333;exitDx=0;exitDy=0;exitPerimeter=0;entryX=0;entryY=0.5;entryDx=0;entryDy=0;" edge="1" parent="1" source="CkkVm7YenpbbgUDBb8Ox-3" target="CkkVm7YenpbbgUDBb8Ox-22">
          <mxGeometry width="50" height="50" relative="1" as="geometry">
            <mxPoint x="390" y="480" as="sourcePoint" />
            <mxPoint x="440" y="430" as="targetPoint" />
          </mxGeometry>
        </mxCell>
      </root>
    </mxGraphModel>
  </diagram>
  <diagram id="ZUTQfqNE8pQfKhsax4yy" name="Usecase đăng xuất">
    <mxGraphModel dx="1422" dy="920" grid="1" gridSize="10" guides="1" tooltips="1" connect="1" arrows="1" fold="1" page="1" pageScale="1" pageWidth="827" pageHeight="1169" math="0" shadow="0">
      <root>
        <mxCell id="jnfV8A6nNsdmv1z-udpJ-0" />
        <mxCell id="jnfV8A6nNsdmv1z-udpJ-1" parent="jnfV8A6nNsdmv1z-udpJ-0" />
        <mxCell id="jnfV8A6nNsdmv1z-udpJ-2" value="Người dùng&lt;br&gt;" style="shape=umlActor;verticalLabelPosition=bottom;verticalAlign=top;html=1;outlineConnect=0;" vertex="1" parent="jnfV8A6nNsdmv1z-udpJ-1">
          <mxGeometry x="100" y="130" width="30" height="60" as="geometry" />
        </mxCell>
        <mxCell id="jnfV8A6nNsdmv1z-udpJ-9" value="Đăng xuất" style="ellipse;whiteSpace=wrap;html=1;" vertex="1" parent="jnfV8A6nNsdmv1z-udpJ-1">
          <mxGeometry x="310" y="150" width="120" height="50" as="geometry" />
        </mxCell>
        <mxCell id="jnfV8A6nNsdmv1z-udpJ-10" value="Đăng nhập" style="ellipse;whiteSpace=wrap;html=1;" vertex="1" parent="jnfV8A6nNsdmv1z-udpJ-1">
          <mxGeometry x="360" y="10" width="120" height="50" as="geometry" />
        </mxCell>
        <mxCell id="jnfV8A6nNsdmv1z-udpJ-11" value="" style="endArrow=none;html=1;rounded=0;entryX=0;entryY=0.5;entryDx=0;entryDy=0;" edge="1" parent="jnfV8A6nNsdmv1z-udpJ-1" source="jnfV8A6nNsdmv1z-udpJ-2" target="jnfV8A6nNsdmv1z-udpJ-9">
          <mxGeometry width="50" height="50" relative="1" as="geometry">
            <mxPoint x="390" y="490" as="sourcePoint" />
            <mxPoint x="440" y="440" as="targetPoint" />
          </mxGeometry>
        </mxCell>
        <mxCell id="jnfV8A6nNsdmv1z-udpJ-13" value="include" style="endArrow=open;endSize=12;dashed=1;html=1;rounded=0;entryX=0.5;entryY=1;entryDx=0;entryDy=0;" edge="1" parent="jnfV8A6nNsdmv1z-udpJ-1" source="jnfV8A6nNsdmv1z-udpJ-9" target="jnfV8A6nNsdmv1z-udpJ-10">
          <mxGeometry width="160" relative="1" as="geometry">
            <mxPoint x="330" y="390" as="sourcePoint" />
            <mxPoint x="490" y="390" as="targetPoint" />
          </mxGeometry>
        </mxCell>
      </root>
    </mxGraphModel>
  </diagram>
  <diagram id="sFeuIyuUg5AyJrqCc2qg" name="Usecase quản lý phòng ban">
    <mxGraphModel dx="1422" dy="920" grid="1" gridSize="10" guides="1" tooltips="1" connect="1" arrows="1" fold="1" page="1" pageScale="1" pageWidth="827" pageHeight="1169" math="0" shadow="0">
      <root>
        <mxCell id="PaDnZfJuzwmLpgNpPQUK-0" />
        <mxCell id="PaDnZfJuzwmLpgNpPQUK-1" parent="PaDnZfJuzwmLpgNpPQUK-0" />
        <mxCell id="jJhJMK8MJb9nnLkWbqOA-0" value="root" style="shape=umlActor;verticalLabelPosition=bottom;verticalAlign=top;html=1;" vertex="1" parent="PaDnZfJuzwmLpgNpPQUK-1">
          <mxGeometry x="90" y="210" width="30" height="60" as="geometry" />
        </mxCell>
        <mxCell id="jJhJMK8MJb9nnLkWbqOA-1" value="Quản lý phòng ban" style="ellipse;whiteSpace=wrap;html=1;" vertex="1" parent="PaDnZfJuzwmLpgNpPQUK-1">
          <mxGeometry x="310" y="215" width="120" height="50" as="geometry" />
        </mxCell>
        <mxCell id="jJhJMK8MJb9nnLkWbqOA-2" value="" style="endArrow=none;html=1;rounded=0;entryX=0;entryY=0.5;entryDx=0;entryDy=0;" edge="1" parent="PaDnZfJuzwmLpgNpPQUK-1" source="jJhJMK8MJb9nnLkWbqOA-0" target="jJhJMK8MJb9nnLkWbqOA-1">
          <mxGeometry width="50" height="50" relative="1" as="geometry">
            <mxPoint x="140" y="320" as="sourcePoint" />
            <mxPoint x="440" y="440" as="targetPoint" />
          </mxGeometry>
        </mxCell>
        <mxCell id="jJhJMK8MJb9nnLkWbqOA-3" value="Thêm" style="ellipse;whiteSpace=wrap;html=1;" vertex="1" parent="PaDnZfJuzwmLpgNpPQUK-1">
          <mxGeometry x="580" y="80" width="120" height="50" as="geometry" />
        </mxCell>
        <mxCell id="jJhJMK8MJb9nnLkWbqOA-4" value="Sửa" style="ellipse;whiteSpace=wrap;html=1;" vertex="1" parent="PaDnZfJuzwmLpgNpPQUK-1">
          <mxGeometry x="580" y="220" width="120" height="50" as="geometry" />
        </mxCell>
        <mxCell id="jJhJMK8MJb9nnLkWbqOA-5" value="Xóa" style="ellipse;whiteSpace=wrap;html=1;" vertex="1" parent="PaDnZfJuzwmLpgNpPQUK-1">
          <mxGeometry x="580" y="330" width="120" height="50" as="geometry" />
        </mxCell>
        <mxCell id="gd5Wsmix4nnDD1s-C-M6-0" value="Đăng nhập root" style="ellipse;whiteSpace=wrap;html=1;" vertex="1" parent="PaDnZfJuzwmLpgNpPQUK-1">
          <mxGeometry x="340" y="70" width="120" height="50" as="geometry" />
        </mxCell>
        <mxCell id="gd5Wsmix4nnDD1s-C-M6-1" value="include" style="endArrow=open;endSize=12;dashed=1;html=1;rounded=0;exitX=0.5;exitY=0;exitDx=0;exitDy=0;entryX=0.5;entryY=1;entryDx=0;entryDy=0;" edge="1" parent="PaDnZfJuzwmLpgNpPQUK-1" source="jJhJMK8MJb9nnLkWbqOA-1" target="gd5Wsmix4nnDD1s-C-M6-0">
          <mxGeometry width="160" relative="1" as="geometry">
            <mxPoint x="330" y="470" as="sourcePoint" />
            <mxPoint x="490" y="470" as="targetPoint" />
          </mxGeometry>
        </mxCell>
        <mxCell id="gd5Wsmix4nnDD1s-C-M6-5" value="extend" style="endArrow=open;endSize=12;dashed=1;html=1;rounded=0;exitX=0;exitY=0.5;exitDx=0;exitDy=0;entryX=1;entryY=0.5;entryDx=0;entryDy=0;" edge="1" parent="PaDnZfJuzwmLpgNpPQUK-1" source="jJhJMK8MJb9nnLkWbqOA-3" target="jJhJMK8MJb9nnLkWbqOA-1">
          <mxGeometry width="160" relative="1" as="geometry">
            <mxPoint x="330" y="470" as="sourcePoint" />
            <mxPoint x="490" y="470" as="targetPoint" />
          </mxGeometry>
        </mxCell>
        <mxCell id="gd5Wsmix4nnDD1s-C-M6-6" value="extend" style="endArrow=open;endSize=12;dashed=1;html=1;rounded=0;exitX=0;exitY=0.5;exitDx=0;exitDy=0;entryX=1;entryY=0.5;entryDx=0;entryDy=0;" edge="1" parent="PaDnZfJuzwmLpgNpPQUK-1" source="jJhJMK8MJb9nnLkWbqOA-4" target="jJhJMK8MJb9nnLkWbqOA-1">
          <mxGeometry width="160" relative="1" as="geometry">
            <mxPoint x="330" y="470" as="sourcePoint" />
            <mxPoint x="490" y="470" as="targetPoint" />
          </mxGeometry>
        </mxCell>
        <mxCell id="gd5Wsmix4nnDD1s-C-M6-7" value="extend" style="endArrow=open;endSize=12;dashed=1;html=1;rounded=0;exitX=0;exitY=0.5;exitDx=0;exitDy=0;entryX=1;entryY=0.5;entryDx=0;entryDy=0;" edge="1" parent="PaDnZfJuzwmLpgNpPQUK-1" source="jJhJMK8MJb9nnLkWbqOA-5" target="jJhJMK8MJb9nnLkWbqOA-1">
          <mxGeometry width="160" relative="1" as="geometry">
            <mxPoint x="330" y="470" as="sourcePoint" />
            <mxPoint x="490" y="470" as="targetPoint" />
          </mxGeometry>
        </mxCell>
      </root>
    </mxGraphModel>
  </diagram>
</mxfile>
